# Blender v2.93.4 OBJ File: 'arrow2_new.blend'
# www.blender.org
mtllib arrow2_new.mtl
o arrow2
v -0.228380 -0.150000 0.290000
v -0.060950 -0.150000 0.000000
v -0.060950 0.150000 0.000000
v -0.228380 0.150000 0.290000
v -0.228380 -0.150000 -0.290000
v -0.228380 0.150000 -0.290000
v -0.563240 -0.150000 -0.290000
v -0.563240 0.150000 -0.290000
v -0.395810 -0.150000 0.000000
v -0.395810 0.150000 0.000000
v -0.563240 -0.150000 0.290000
v -0.563240 0.150000 0.290000
v 0.271620 -0.150000 0.290000
v 0.439050 -0.150000 0.000000
v 0.439050 0.150000 0.000000
v 0.271620 0.150000 0.290000
v 0.271620 -0.150000 -0.290000
v 0.271620 0.150000 -0.290000
v -0.063240 -0.150000 -0.290000
v -0.063240 0.150000 -0.290000
v 0.104190 -0.150000 0.000000
v 0.104190 0.150000 0.000000
v -0.063240 -0.150000 0.290000
v -0.063240 0.150000 0.290000
vn 0.8660 0.0000 0.5000
vn 0.8660 0.0000 -0.5000
vn 0.0000 0.0000 -1.0000
vn -0.8660 0.0000 0.5000
vn -0.8660 0.0000 -0.5000
vn 0.0000 0.0000 1.0000
vn 0.0000 -1.0000 -0.0000
vn 0.0000 1.0000 0.0000
usemtl Default_OBJ
s off
f 1//1 2//1 3//1 4//1
f 2//2 5//2 6//2 3//2
f 5//3 7//3 8//3 6//3
f 7//4 9//4 10//4 8//4
f 9//5 11//5 12//5 10//5
f 11//6 1//6 4//6 12//6
f 11//7 9//7 2//7 1//7
f 8//8 10//8 3//8 6//8
f 12//8 4//8 3//8 10//8
f 5//7 2//7 9//7 7//7
f 13//1 14//1 15//1 16//1
f 14//2 17//2 18//2 15//2
f 17//3 19//3 20//3 18//3
f 19//4 21//4 22//4 20//4
f 21//5 23//5 24//5 22//5
f 23//6 13//6 16//6 24//6
f 23//7 21//7 14//7 13//7
f 20//8 22//8 15//8 18//8
f 24//8 16//8 15//8 22//8
f 17//7 14//7 21//7 19//7
